<svg xmlns="http://www.w3.org/2000/svg" viewBox="0 0 500 700" preserveAspectRatio="xMidYMid slice">
<defs><filter id="blurBig" x="-40%" y="-40%" width="180%" height="180%"><feGaussianBlur stdDeviation="26"/></filter><filter id="glow" x="-200%" y="-200%" width="500%" height="500%"><feGaussianBlur stdDeviation="3.2" result="g"/><feMerge><feMergeNode in="g"/><feMergeNode in="SourceGraphic"/></feMerge></filter><linearGradient id="h0" x1="0" y1="0" x2="0" y2="1"><stop offset="0" stop-color="hsl(180, 40%, 34%)"/><stop offset="1" stop-color="hsl(180, 35%, 20%)"/></linearGradient><linearGradient id="h1" x1="0" y1="0" x2="0" y2="1"><stop offset="0" stop-color="hsl(180, 40%, 34%)"/><stop offset="1" stop-color="hsl(180, 35%, 20%)"/></linearGradient><linearGradient id="h2" x1="0" y1="0" x2="0" y2="1"><stop offset="0" stop-color="hsl(180, 35%, 20%)"/><stop offset="1" stop-color="#06090c"/></linearGradient></defs>
<rect width="500" height="700" fill="#0a0e15"/><ellipse cx="204" cy="227" rx="146" ry="104" fill="hsl(180, 35%, 20%)" opacity="0.49" filter="url(#blurBig)"/><ellipse cx="128" cy="300" rx="103" ry="74" fill="hsl(180, 35%, 20%)" opacity="0.30" filter="url(#blurBig)"/><ellipse cx="224" cy="313" rx="153" ry="109" fill="hsl(180, 35%, 20%)" opacity="0.32" filter="url(#blurBig)"/><ellipse cx="204" cy="350" rx="204" ry="146" fill="hsl(180, 35%, 20%)" opacity="0.39" filter="url(#blurBig)"/><path d="M0 240.0 L 0.0 295.0 L 16.7 291.8 L 33.3 284.7 L 50.0 286.9 L 66.7 282.5 L 83.3 277.2 L 100.0 271.8 L 116.7 271.0 L 133.3 274.4 L 150.0 268.9 L 166.7 271.9 L 183.3 267.8 L 200.0 269.4 L 216.7 270.8 L 233.3 273.5 L 250.0 276.4 L 266.7 279.3 L 283.3 283.8 L 300.0 281.8 L 316.7 287.9 L 333.3 288.9 L 350.0 286.1 L 366.7 291.5 L 383.3 291.7 L 400.0 289.2 L 416.7 289.9 L 433.3 288.8 L 450.0 280.8 L 466.7 284.6 L 483.3 275.1 L 500.0 273.2 L 500 680 L 0 680 Z" fill="url(#ridg0)" opacity="0.3"/><path d="M0 300.0 L 0.0 422.2 L 16.7 418.6 L 33.3 429.0 L 50.0 428.2 L 66.7 426.9 L 83.3 427.5 L 100.0 423.2 L 116.7 421.8 L 133.3 412.6 L 150.0 402.3 L 166.7 391.7 L 183.3 388.8 L 200.0 373.5 L 216.7 360.2 L 233.3 345.3 L 250.0 329.8 L 266.7 316.8 L 283.3 296.3 L 300.0 286.7 L 316.7 271.4 L 333.3 254.0 L 350.0 234.9 L 366.7 219.0 L 383.3 209.1 L 400.0 193.2 L 416.7 182.0 L 433.3 173.3 L 450.0 159.6 L 466.7 154.0 L 483.3 148.0 L 500.0 141.9 L 500 680 L 0 680 Z" fill="url(#ridg1)" opacity="0.46"/><path d="M0 380.0 L 0.0 341.6 L 16.7 338.4 L 33.3 340.6 L 50.0 344.5 L 66.7 353.5 L 83.3 369.8 L 100.0 389.1 L 116.7 411.5 L 133.3 430.2 L 150.0 458.5 L 166.7 479.2 L 183.3 509.8 L 200.0 526.1 L 216.7 552.7 L 233.3 566.3 L 250.0 576.8 L 266.7 586.0 L 283.3 595.9 L 300.0 592.1 L 316.7 587.3 L 333.3 570.5 L 350.0 558.3 L 366.7 542.4 L 383.3 526.8 L 400.0 508.1 L 416.7 488.3 L 433.3 470.1 L 450.0 456.1 L 466.7 444.8 L 483.3 432.0 L 500.0 428.5 L 500 680 L 0 680 Z" fill="url(#ridg2)" opacity="0.72"/><path d="M0 600 Q 120 560 260 585 T 500 610 L500 700 L0 700 Z" fill="#06090f"/><circle cx="134.5" cy="564.5" r="1.6" fill="hsl(180, 70%, 62%)" opacity="0.77" filter="url(#glow)"/><circle cx="100.1" cy="528.9" r="6.6" fill="hsl(180, 70%, 62%)" opacity="0.32" filter="url(#glow)"/><circle cx="427.1" cy="63.0" r="1.7" fill="hsl(180, 70%, 62%)" opacity="0.57" filter="url(#glow)"/><circle cx="494.9" cy="441.4" r="7.6" fill="hsl(180, 70%, 62%)" opacity="0.34" filter="url(#glow)"/><circle cx="253.1" cy="135.5" r="6.4" fill="hsl(180, 70%, 62%)" opacity="0.67" filter="url(#glow)"/><circle cx="353.5" cy="140.4" r="5.8" fill="hsl(180, 70%, 62%)" opacity="0.71" filter="url(#glow)"/><circle cx="159.4" cy="571.6" r="7.9" fill="hsl(180, 70%, 62%)" opacity="0.61" filter="url(#glow)"/><circle cx="385.8" cy="62.4" r="6.7" fill="hsl(180, 70%, 62%)" opacity="0.37" filter="url(#glow)"/><circle cx="264.1" cy="538.4" r="4.9" fill="hsl(180, 70%, 62%)" opacity="0.74" filter="url(#glow)"/><circle cx="400.3" cy="273.3" r="2.9" fill="hsl(180, 70%, 62%)" opacity="0.33" filter="url(#glow)"/><circle cx="65.0" cy="130.4" r="5.6" fill="hsl(180, 70%, 62%)" opacity="0.75" filter="url(#glow)"/><circle cx="176.2" cy="408.9" r="7.2" fill="hsl(180, 70%, 62%)" opacity="0.75" filter="url(#glow)"/><circle cx="69.6" cy="47.9" r="7.0" fill="hsl(180, 70%, 62%)" opacity="0.33" filter="url(#glow)"/><circle cx="236.8" cy="80.7" r="4.0" fill="hsl(180, 70%, 62%)" opacity="0.53" filter="url(#glow)"/><circle cx="137" cy="498" r="22" fill="none" stroke="hsl(180, 70%, 62%)" stroke-width="1.2" opacity="0.85" filter="url(#glow)"/><circle cx="137" cy="498" r="12.100000000000001" fill="none" stroke="hsl(180, 70%, 62%)" stroke-width="0.7" opacity="0.6" filter="url(#glow)"/>
</svg>